<?xml version="1.0" standalone="no"?><svg xmlns="http://www.w3.org/2000/svg" viewBox="0 0 1440 320"><path fill="#D9D7E9" fill-opacity="1" d="M0,64L10.9,58.7C21.8,53,44,43,65,37.3C87.3,32,109,32,131,64C152.7,96,175,160,196,181.3C218.2,203,240,181,262,181.3C283.6,181,305,203,327,197.3C349.1,192,371,160,393,149.3C414.5,139,436,149,458,176C480,203,502,245,524,234.7C545.5,224,567,160,589,117.3C610.9,75,633,53,655,42.7C676.4,32,698,32,720,64C741.8,96,764,160,785,176C807.3,192,829,160,851,144C872.7,128,895,128,916,128C938.2,128,960,128,982,112C1003.6,96,1025,64,1047,90.7C1069.1,117,1091,203,1113,202.7C1134.5,203,1156,117,1178,101.3C1200,85,1222,139,1244,154.7C1265.5,171,1287,149,1309,144C1330.9,139,1353,149,1375,149.3C1396.4,149,1418,139,1429,133.3L1440,128L1440,320L1429.1,320C1418.2,320,1396,320,1375,320C1352.7,320,1331,320,1309,320C1287.3,320,1265,320,1244,320C1221.8,320,1200,320,1178,320C1156.4,320,1135,320,1113,320C1090.9,320,1069,320,1047,320C1025.5,320,1004,320,982,320C960,320,938,320,916,320C894.5,320,873,320,851,320C829.1,320,807,320,785,320C763.6,320,742,320,720,320C698.2,320,676,320,655,320C632.7,320,611,320,589,320C567.3,320,545,320,524,320C501.8,320,480,320,458,320C436.4,320,415,320,393,320C370.9,320,349,320,327,320C305.5,320,284,320,262,320C240,320,218,320,196,320C174.5,320,153,320,131,320C109.1,320,87,320,65,320C43.6,320,22,320,11,320L0,320Z"></path></svg>