<?xml version="1.0" standalone="no"?><svg xmlns="http://www.w3.org/2000/svg" viewBox="0 0 1440 320"><path fill="#D9D7E9" fill-opacity="1" d="M0,128L8.9,154.7C17.8,181,36,235,53,229.3C71.1,224,89,160,107,133.3C124.4,107,142,117,160,112C177.8,107,196,85,213,117.3C231.1,149,249,235,267,229.3C284.4,224,302,128,320,96C337.8,64,356,96,373,117.3C391.1,139,409,149,427,165.3C444.4,181,462,203,480,197.3C497.8,192,516,160,533,165.3C551.1,171,569,213,587,224C604.4,235,622,213,640,181.3C657.8,149,676,107,693,122.7C711.1,139,729,213,747,218.7C764.4,224,782,160,800,133.3C817.8,107,836,117,853,122.7C871.1,128,889,128,907,154.7C924.4,181,942,235,960,261.3C977.8,288,996,288,1013,293.3C1031.1,299,1049,309,1067,314.7C1084.4,320,1102,320,1120,298.7C1137.8,277,1156,235,1173,208C1191.1,181,1209,171,1227,160C1244.4,149,1262,139,1280,154.7C1297.8,171,1316,213,1333,229.3C1351.1,245,1369,235,1387,202.7C1404.4,171,1422,117,1431,90.7L1440,64L1440,0L1431.1,0C1422.2,0,1404,0,1387,0C1368.9,0,1351,0,1333,0C1315.6,0,1298,0,1280,0C1262.2,0,1244,0,1227,0C1208.9,0,1191,0,1173,0C1155.6,0,1138,0,1120,0C1102.2,0,1084,0,1067,0C1048.9,0,1031,0,1013,0C995.6,0,978,0,960,0C942.2,0,924,0,907,0C888.9,0,871,0,853,0C835.6,0,818,0,800,0C782.2,0,764,0,747,0C728.9,0,711,0,693,0C675.6,0,658,0,640,0C622.2,0,604,0,587,0C568.9,0,551,0,533,0C515.6,0,498,0,480,0C462.2,0,444,0,427,0C408.9,0,391,0,373,0C355.6,0,338,0,320,0C302.2,0,284,0,267,0C248.9,0,231,0,213,0C195.6,0,178,0,160,0C142.2,0,124,0,107,0C88.9,0,71,0,53,0C35.6,0,18,0,9,0L0,0Z"></path></svg>